REM COMMENT "Generated by IcecastMetadataRecorder https://github.com/eshaz/icecast-metadata-js"
REM BR "16"
REM METAINT "64"
REM DATE "2020-07-29T21:16:11.222Z"
TITLE "isics-all"
FILE "isics-all.mp3" WAVE
  TRACK 1 AUDIO
    TITLE "2020-07-29T21:17:51.158Z TO:1102 Polk County - Westcom Law Enforcement 2 FROM:1373"
    INDEX 01 01:39:70
  TRACK 2 AUDIO
    TITLE "2020-07-29T21:17:53.246Z TO:24631 Dallas County Fire/EMS Operations FROM:2520309"
    INDEX 01 01:42:02
  TRACK 3 AUDIO
    TITLE "2020-07-29T21:17:55.334Z TO:24631 Dallas County Fire/EMS Operations FROM:2520002"
    INDEX 01 01:44:08
  TRACK 4 AUDIO
    TITLE "2020-07-29T21:17:57.422Z TO:1101 Polk County - Westcom Law Enforcement 1 FROM:1381"
    INDEX 01 01:46:15
  TRACK 5 AUDIO
    TITLE "2020-07-29T21:18:00.950Z TO:1101 Polk County - Westcom Law Enforcement 1 FROM:1004"
    INDEX 01 01:49:55
  TRACK 6 AUDIO
    TITLE "2020-07-29T21:18:03.038Z TO:24631 Dallas County Fire/EMS Operations FROM:2520302"
    INDEX 01 01:51:61
  TRACK 7 AUDIO
    TITLE "2020-07-29T21:18:07.286Z TO:7 Polk County - Westcom Law Enforcement 4 FROM:1377"
    INDEX 01 01:56:05
  TRACK 8 AUDIO
    TITLE "2020-07-29T21:18:09.374Z TO:24631 Dallas County Fire/EMS Operations FROM:UNKNOWN"
    INDEX 01 01:58:11
  TRACK 9 AUDIO
    TITLE "2020-07-29T21:18:11.462Z TO:5002 Department of Public Safety - Area A Law 2A - DPS District #1 FROM:10984"
    INDEX 01 02:00:18
  TRACK 10 AUDIO
    TITLE "END"
    INDEX 01 02:12:63